<svg width="512" height="512" viewBox="0 0 512 512" xmlns="http://www.w3.org/2000/svg">
  <defs>
    <linearGradient id="bgGrad" x1="0" y1="0" x2="1" y2="1">
      <stop offset="0%" stop-color="#0d1a10"/>
      <stop offset="100%" stop-color="#080f0a"/>
    </linearGradient>
  </defs>
  <rect x="16" y="16" width="480" height="480" rx="100" fill="url(#bgGrad)" stroke="#16C47F" stroke-width="8" stroke-opacity="0.35"/>
  <g transform="translate(40,40) scale(18)">
    <path d="M12 2C6 2 2 8 2 14c0 4 2.5 7 6 8l1-3c-2-.8-3-2.8-3-5 0-4 2.7-8 6-8s6 4 6 8c0 2.2-1 4.2-3 5l1 3c3.5-1 6-4 6-8 0-6-4-12-10-12z" fill="#16C47F"/>
    <circle cx="12" cy="14" r="2.5" fill="#16C47F"/>
  </g>
</svg>
